# xmcd CD database file
# Copyright (C) 1993-1998 Ti Kan
#
# Track frame offsets:
#  150
#  32907
#  47221
#  69832
#  78400
#  99274
#  110202
#  121235
#  144409
#  160732
#  184017
#  195855
#  214982
#  229559
#  264823
#  285910
#  299991
#  314700
#  328812
#
# Disc length: 4570 seconds
#
# Revision: 1
# Processed by: cddbd v1.4b41PL1 Copyright (c) Steve Scherf et al.
# Submitted via: KiC 2.1 - (C) 1996-1998 Alwin Hoogerdijk
#
DISCID=1511d813
DTITLE=Lightnin Hopkins - Po' Lightnin'
DYEAR=1900
DGENRE=
TTITLE0=Ice Storm Blues
TTITLE1=Speedin' Boogie
TTITLE2=Wine Drinking Woman
TTITLE3=Do the Boogie
TTITLE4=My Baby's Gone
TTITLE5=Wake Up Old Maid
TTITLE6=Jesus Will You Come By Here
TTITLE7=Candy Kitchen
TTITLE8=Gin Bottle Blues
TTITLE9=Hurricanes Carla and Ester
TTITLE10=Wipe Your Feet On The Floor
TTITLE11=Please Settle In Vietnam
TTITLE12=Up On Telegraph Ave
TTITLE13=California Showers
TTITLE14=Burnin In LA
TTITLE15=Selling Wine In Arizona
TTITLE16=Brand New Lock
TTITLE17=I'm Leaving You Now
TTITLE18=Goin' Out Number
EXTD=
EXTT0=
EXTT1=
EXTT2=
EXTT3=
EXTT4=
EXTT5=
EXTT6=
EXTT7=
EXTT8=
EXTT9=
EXTT10=
EXTT11=
EXTT12=
EXTT13=
EXTT14=
EXTT15=
EXTT16=
EXTT17=
EXTT18=
PLAYORDER=
